<?xml version="1.0" encoding="UTF-8" standalone="no"?>
<svg xmlns="http://www.w3.org/2000/svg" height="188" width="168" version="1.1" viewBox="0 0 167.24862 187.98569">
 <rect stroke-linejoin="round" stroke-dashoffset=".650" height="103" width="115" stroke="#000" stroke-linecap="round" y="69" x="26.1" stroke-width="3" fill="gold"/>
 <rect stroke-linejoin="round" stroke-dashoffset=".650" height="36.2" width="127" stroke="#000" stroke-linecap="round" y="59.9" x="20.2" stroke-width="3" fill="gold"/>
 <g stroke-linejoin="round" stroke="#000" stroke-linecap="round" stroke-width="3" fill-rule="evenodd">
  <path d="m56.9 16.4c-11-3.1-21.9 19.3-17.7 26.9 7.6 13.8 30.8 16.9 39.8 16.5-8.9-8.1-14.4-41.3-22.1-43.4zm-1.6 15.8c3.8 0.4 6.8 9.8 10.5 18-8.5-1.8-15.4-3.7-16.8-9-0.7-3 3.2-9.2 6.3-9z" fill="#00f"/>
  <path d="m117 25.9c9-2.6 20 15.1 15 24.6-6 14.2-33.4 10.6-45 7.8 15-9.4 16-28.2 30-32.4zm1 12.9c-5-0.1-9 6.9-11 11.5 4 0.8 12 2.7 15-1.5 2-2.7-1-10-4-10z" fill="#00f"/>
  <path d="m74.3 53.6c-16 1.4-34.5 1.3-46.1 11.8-10 9-15.1 27.1-19.9 36.6 5.5 3 9.4 8 13.4 14-1.7-16 1.2-35.7 11.6-46.4 6.6-6.9 26.2-7.3 41.2-8z" fill="#0000fd"/>
 </g>
 <g stroke-linejoin="round" stroke="#000" stroke-linecap="round" fill="#00f">
  <path d="m89.8 54.1c15.2-0.4 35.2 3.3 55.2 3.4-5 7.2-7 13.3-8 21.5 0 0-9-10.1-15-12.8-9-4.5-24.1-5.2-32.5-6.3z" fill-rule="evenodd" stroke-width="3"/>
  <path d="m73.8 62.7c-2.1-4-1.2-8 0.4-12.1 6.8-0.3 12.9 0.1 18.8 0.8 1.3 3.3 2.4 6.6 0.7 10.4-7.6 1.6-13.8 1.3-19.9 0.9z" fill-rule="evenodd" stroke-width="3"/>
 </g>
</svg>
