<?xml version="1.0" encoding="UTF-8" standalone="no"?>
<svg xmlns="http://www.w3.org/2000/svg" height="512" width="512" version="1.1" viewBox="0 0 8 8">
  <g fill="#000">
    <rect height="1" width="1" x="1" y ="0"/>
    <rect height="1" width="1" x="3" y ="0"/>
    <rect height="1" width="1" x="5" y ="0"/>
    <rect height="1" width="1" x="7" y ="0"/>
    <rect height="1" width="1" x="0" y ="1"/>
    <rect height="1" width="1" x="2" y ="1"/>
    <rect height="1" width="1" x="4" y ="1"/>
    <rect height="1" width="1" x="6" y ="1"/>
    <rect height="1" width="1" x="1" y ="2"/>
    <rect height="1" width="1" x="3" y ="2"/>
    <rect height="1" width="1" x="5" y ="2"/>
    <rect height="1" width="1" x="7" y ="2"/>
    <rect height="1" width="1" x="0" y ="3"/>
    <rect height="1" width="1" x="2" y ="3"/>
    <rect height="1" width="1" x="4" y ="3"/>
    <rect height="1" width="1" x="6" y ="3"/>
    <rect height="1" width="1" x="1" y ="4"/>
    <rect height="1" width="1" x="3" y ="4"/>
    <rect height="1" width="1" x="5" y ="4"/>
    <rect height="1" width="1" x="7" y ="4"/>
    <rect height="1" width="1" x="0" y ="5"/>
    <rect height="1" width="1" x="2" y ="5"/>
    <rect height="1" width="1" x="4" y ="5"/>
    <rect height="1" width="1" x="6" y ="5"/>
    <rect height="1" width="1" x="1" y ="6"/>
    <rect height="1" width="1" x="3" y ="6"/>
    <rect height="1" width="1" x="5" y ="6"/>
    <rect height="1" width="1" x="0" y ="7"/>
    <rect height="1" width="1" x="2" y ="7"/>
    <rect height="1" width="1" x="4" y ="7"/>
    <path d="M8 8h-2v-1h1v-1h1z"/>
  </g>
  <g fill="#fff">
    <rect height="1" width="1" x="0" y ="0"/>
    <rect height="1" width="1" x="2" y ="0"/>
    <rect height="1" width="1" x="4" y ="0"/>
    <rect height="1" width="1" x="6" y ="0"/>
    <rect height="1" width="1" x="1" y ="1"/>
    <rect height="1" width="1" x="3" y ="1"/>
    <rect height="1" width="1" x="5" y ="1"/>
    <rect height="1" width="1" x="7" y ="1"/>
    <rect height="1" width="1" x="0" y ="2"/>
    <rect height="1" width="1" x="2" y ="2"/>
    <rect height="1" width="1" x="4" y ="2"/>
    <rect height="1" width="1" x="6" y ="2"/>
    <rect height="1" width="1" x="1" y ="3"/>
    <rect height="1" width="1" x="3" y ="3"/>
    <rect height="1" width="1" x="5" y ="3"/>
    <rect height="1" width="1" x="7" y ="3"/>
    <rect height="1" width="1" x="0" y ="4"/>
    <rect height="1" width="1" x="2" y ="4"/>
    <rect height="1" width="1" x="4" y ="4"/>
    <rect height="1" width="1" x="6" y ="4"/>
    <rect height="1" width="1" x="1" y ="5"/>
    <rect height="1" width="1" x="3" y ="5"/>
    <rect height="1" width="1" x="5" y ="5"/>
    <rect height="1" width="1" x="7" y ="5"/>
    <rect height="1" width="1" x="0" y ="6"/>
    <rect height="1" width="1" x="2" y ="6"/>
    <rect height="1" width="1" x="4" y ="6"/>
    <rect height="1" width="1" x="6" y ="6"/>
    <rect height="1" width="1" x="1" y ="7"/>
    <rect height="1" width="1" x="3" y ="7"/>
    <rect height="1" width="1" x="5" y ="7"/>
  </g>
</svg>
