<?xml version="1.0" encoding="UTF-8" standalone="no"?>
<svg xmlns="http://www.w3.org/2000/svg" height="512" width="512" version="1.1" viewBox="0 0 512 512">
 <g transform="translate(306 -248)">
  <path transform="matrix(1 -.199 .199 1 -101 -14.4)" fill="#f00" d="m-50.2 252 98 20 83.2 55 55 83 20 98-20 98-55 83-83.2 56-98 19-97.8-19-83-56-56-83-19-98 19-98 56-83 83-55z"/>
  <g transform="translate(3.57 -10.8)">
   <rect height="246" width="41" y="392" x="-115"/>
   <rect height="246" width="41" y="392" x="-33.1"/>
   <rect transform="rotate(-90)" height="246" width="41" y="-177" x="-494"/>
   <rect transform="rotate(-90)" height="246" width="41" y="-177" x="-576"/>
  </g>
 </g>
</svg>
